<svg xmlns="http://www.w3.org/2000/svg" xmlns:xlink="http://www.w3.org/1999/xlink" width="500" zoomAndPan="magnify" viewBox="0 0 375 374.999991" height="500" preserveAspectRatio="xMidYMid meet" version="1.0"><defs><g/><clipPath id="id1"><path d="M 166 128 L 237.078125 128 L 237.078125 210.046875 L 166 210.046875 Z M 166 128 " clip-rule="nonzero"/></clipPath><clipPath id="id2"><path d="M 138.078125 114.046875 L 197 114.046875 L 197 204 L 138.078125 204 Z M 138.078125 114.046875 " clip-rule="nonzero"/></clipPath></defs><g clip-path="url(#id1)"><path fill="#393536" d="M 210.605469 199.53125 L 217.042969 203.222656 C 220.972656 200.3125 224.457031 196.835938 227.371094 192.910156 L 223.671875 186.484375 C 226.332031 182.328125 228.292969 177.679688 229.382812 172.710938 L 236.550781 170.78125 C 236.902344 168.40625 237.089844 165.972656 237.089844 163.5 C 237.089844 161.023438 236.902344 158.59375 236.550781 156.214844 L 229.382812 154.285156 C 228.292969 149.316406 226.332031 144.667969 223.671875 140.515625 L 226.496094 135.609375 C 219.847656 131.027344 211.785156 128.34375 203.09375 128.34375 C 197.863281 128.34375 192.863281 129.316406 188.257812 131.089844 C 205.878906 131.445312 220.054688 145.820312 220.054688 163.5 C 220.054688 181.402344 205.519531 195.917969 187.585938 195.917969 C 179.351562 195.917969 171.835938 192.855469 166.113281 187.8125 C 171.78125 199.222656 182.589844 207.636719 195.515625 210.035156 L 196.8125 205.234375 C 201.789062 204.140625 206.445312 202.1875 210.605469 199.53125 " fill-opacity="1" fill-rule="nonzero"/></g><g clip-path="url(#id2)"><path fill="#f68712" d="M 154.230469 169.535156 C 154.230469 165.660156 154.683594 161.890625 155.539062 158.273438 C 156.285156 153.671875 158.003906 149.394531 160.472656 145.660156 C 167.847656 132.566406 181.097656 123.214844 196.652344 121.167969 L 194.878906 114.609375 C 192.5 114.257812 190.0625 114.074219 187.585938 114.074219 C 185.109375 114.074219 182.671875 114.257812 180.292969 114.609375 L 178.359375 121.765625 C 173.382812 122.855469 168.726562 124.8125 164.566406 127.464844 L 158.128906 123.773438 C 154.199219 126.683594 150.714844 130.164062 147.800781 134.085938 L 151.5 140.515625 C 148.839844 144.667969 146.882812 149.316406 145.789062 154.285156 L 138.621094 156.214844 C 138.269531 158.59375 138.085938 161.023438 138.085938 163.5 C 138.085938 165.972656 138.269531 168.40625 138.621094 170.78125 L 145.789062 172.710938 C 146.882812 177.679688 148.839844 182.328125 151.5 186.484375 L 147.800781 192.910156 C 150.714844 196.835938 154.199219 200.3125 158.128906 203.222656 L 164.558594 199.535156 C 158.085938 191.261719 154.230469 180.847656 154.230469 169.535156 " fill-opacity="1" fill-rule="nonzero"/></g><g fill="#393536" fill-opacity="1"><g transform="translate(89.505674, 242.092674)"><g><path d="M 4.757812 0 L 5.777344 -3.394531 L 12.070312 -3.394531 L 13.085938 0 L 17.796875 0 L 11.328125 -18.914062 L 6.519531 -18.914062 L 0.0507812 0 Z M 8.921875 -13.980469 L 10.90625 -7.238281 L 6.941406 -7.238281 Z M 8.921875 -13.980469 "/></g></g></g><g fill="#393536" fill-opacity="1"><g transform="translate(107.351029, 242.092674)"><g><path d="M 9.34375 0.421875 C 15.171875 0.421875 17.375 -2.726562 17.375 -7.0625 L 17.375 -18.914062 L 12.914062 -18.914062 L 12.914062 -7.0625 C 12.914062 -5.132812 12.21875 -3.542969 9.34375 -3.542969 C 6.445312 -3.542969 5.75 -5.132812 5.75 -7.0625 L 5.75 -18.914062 L 1.289062 -18.914062 L 1.289062 -7.0625 C 1.289062 -2.726562 3.496094 0.421875 9.34375 0.421875 Z M 9.34375 0.421875 "/></g></g></g><g fill="#393536" fill-opacity="1"><g transform="translate(126.039081, 242.092674)"><g><path d="M 5.925781 0 L 5.925781 -15.269531 L 9.59375 0 L 13.90625 0 L 17.574219 -15.367188 L 17.574219 0 L 22.011719 0 L 22.011719 -18.914062 L 14.847656 -18.914062 L 11.75 -5.304688 L 8.625 -18.914062 L 1.488281 -18.914062 L 1.488281 0 Z M 5.925781 0 "/></g></g></g><g fill="#393536" fill-opacity="1"><g transform="translate(149.560258, 242.092674)"><g><path d="M 10.238281 0.421875 C 16.65625 0.421875 19.65625 -4.1875 19.65625 -9.46875 C 19.65625 -14.75 16.65625 -19.308594 10.238281 -19.308594 C 3.769531 -19.308594 0.792969 -14.75 0.792969 -9.46875 C 0.792969 -4.1875 3.769531 0.421875 10.238281 0.421875 Z M 10.238281 -3.542969 C 7.261719 -3.542969 5.476562 -5.875 5.476562 -9.46875 C 5.476562 -13.039062 7.261719 -15.34375 10.238281 -15.34375 C 13.210938 -15.34375 14.972656 -13.039062 14.972656 -9.46875 C 14.972656 -5.875 13.210938 -3.542969 10.238281 -3.542969 Z M 10.238281 -3.542969 "/></g></g></g><g fill="#393536" fill-opacity="1"><g transform="translate(170.032844, 242.092674)"><g/></g></g><g fill="#393536" fill-opacity="1"><g transform="translate(176.477, 242.092674)"><g><path d="M 9.964844 0 L 9.964844 -14.945312 L 15.292969 -14.945312 L 15.292969 -18.914062 L 0.199219 -18.914062 L 0.199219 -14.945312 L 5.527344 -14.945312 L 5.527344 0 Z M 9.964844 0 "/></g></g></g><g fill="#393536" fill-opacity="1"><g transform="translate(191.967768, 242.092674)"><g><path d="M 14.402344 0 L 14.402344 -3.964844 L 5.925781 -3.964844 L 5.925781 -7.484375 L 13.582031 -7.484375 L 13.582031 -11.425781 L 5.925781 -11.425781 L 5.925781 -14.945312 L 14.402344 -14.945312 L 14.402344 -18.914062 L 1.488281 -18.914062 L 1.488281 0 Z M 14.402344 0 "/></g></g></g><g fill="#393536" fill-opacity="1"><g transform="translate(207.433747, 242.092674)"><g><path d="M 10.238281 0.421875 C 15.21875 0.421875 18.121094 -2.328125 18.617188 -6.421875 L 13.757812 -6.421875 C 13.460938 -4.4375 12.023438 -3.542969 10.136719 -3.542969 C 7.140625 -3.542969 5.476562 -5.875 5.476562 -9.46875 C 5.476562 -13.039062 7.140625 -15.34375 10.136719 -15.34375 C 12.023438 -15.34375 13.484375 -14.449219 13.757812 -12.519531 L 18.617188 -12.519531 C 18.121094 -16.582031 15.21875 -19.308594 10.238281 -19.308594 C 3.769531 -19.308594 0.792969 -14.75 0.792969 -9.46875 C 0.792969 -4.1875 3.769531 0.421875 10.238281 0.421875 Z M 10.238281 0.421875 "/></g></g></g><g fill="#393536" fill-opacity="1"><g transform="translate(226.741428, 242.092674)"><g><path d="M 5.925781 0 L 5.925781 -7.460938 L 13.113281 -7.460938 L 13.113281 0 L 17.550781 0 L 17.550781 -18.914062 L 13.113281 -18.914062 L 13.113281 -11.425781 L 5.925781 -11.425781 L 5.925781 -18.914062 L 1.488281 -18.914062 L 1.488281 0 Z M 5.925781 0 "/></g></g></g><g fill="#393536" fill-opacity="1"><g transform="translate(245.826052, 242.092674)"><g><path d="M 5.925781 0 L 5.925781 -11.550781 L 13.1875 0 L 17.699219 0 L 17.699219 -18.914062 L 13.261719 -18.914062 L 13.261719 -7.4375 L 6 -18.914062 L 1.488281 -18.914062 L 1.488281 0 Z M 5.925781 0 "/></g></g></g><g fill="#393536" fill-opacity="1"><g transform="translate(265.009816, 242.092674)"><g><path d="M 10.238281 0.421875 C 16.65625 0.421875 19.65625 -4.1875 19.65625 -9.46875 C 19.65625 -14.75 16.65625 -19.308594 10.238281 -19.308594 C 3.769531 -19.308594 0.792969 -14.75 0.792969 -9.46875 C 0.792969 -4.1875 3.769531 0.421875 10.238281 0.421875 Z M 10.238281 -3.542969 C 7.261719 -3.542969 5.476562 -5.875 5.476562 -9.46875 C 5.476562 -13.039062 7.261719 -15.34375 10.238281 -15.34375 C 13.210938 -15.34375 14.972656 -13.039062 14.972656 -9.46875 C 14.972656 -5.875 13.210938 -3.542969 10.238281 -3.542969 Z M 10.238281 -3.542969 "/></g></g></g><g fill="#393536" fill-opacity="1"><g transform="translate(138.702896, 258.544962)"><g><path d="M 5.90625 -2.296875 C 5.90625 -1.546875 5.632812 -0.957031 5.09375 -0.53125 C 4.5625 -0.101562 3.820312 0.109375 2.875 0.109375 C 1.988281 0.109375 1.207031 -0.0546875 0.53125 -0.390625 L 0.53125 -2.015625 C 1.082031 -1.765625 1.550781 -1.585938 1.9375 -1.484375 C 2.332031 -1.378906 2.6875 -1.328125 3 -1.328125 C 3.382812 -1.328125 3.675781 -1.398438 3.875 -1.546875 C 4.082031 -1.691406 4.1875 -1.910156 4.1875 -2.203125 C 4.1875 -2.367188 4.140625 -2.515625 4.046875 -2.640625 C 3.960938 -2.765625 3.832031 -2.882812 3.65625 -3 C 3.488281 -3.113281 3.132812 -3.300781 2.59375 -3.5625 C 2.082031 -3.800781 1.703125 -4.03125 1.453125 -4.25 C 1.203125 -4.46875 1 -4.71875 0.84375 -5 C 0.695312 -5.289062 0.625 -5.632812 0.625 -6.03125 C 0.625 -6.757812 0.867188 -7.332031 1.359375 -7.75 C 1.859375 -8.164062 2.546875 -8.375 3.421875 -8.375 C 3.847656 -8.375 4.253906 -8.320312 4.640625 -8.21875 C 5.035156 -8.113281 5.445312 -7.972656 5.875 -7.796875 L 5.3125 -6.4375 C 4.863281 -6.613281 4.492188 -6.738281 4.203125 -6.8125 C 3.921875 -6.882812 3.640625 -6.921875 3.359375 -6.921875 C 3.035156 -6.921875 2.785156 -6.84375 2.609375 -6.6875 C 2.429688 -6.53125 2.34375 -6.328125 2.34375 -6.078125 C 2.34375 -5.921875 2.375 -5.785156 2.4375 -5.671875 C 2.507812 -5.554688 2.625 -5.445312 2.78125 -5.34375 C 2.9375 -5.238281 3.304688 -5.046875 3.890625 -4.765625 C 4.660156 -4.398438 5.1875 -4.03125 5.46875 -3.65625 C 5.757812 -3.28125 5.90625 -2.828125 5.90625 -2.296875 Z M 5.90625 -2.296875 "/></g></g></g><g fill="#393536" fill-opacity="1"><g transform="translate(148.978867, 258.544962)"><g><path d="M 8.53125 -4.140625 C 8.53125 -2.773438 8.191406 -1.722656 7.515625 -0.984375 C 6.835938 -0.253906 5.863281 0.109375 4.59375 0.109375 C 3.332031 0.109375 2.363281 -0.253906 1.6875 -0.984375 C 1.007812 -1.722656 0.671875 -2.78125 0.671875 -4.15625 C 0.671875 -5.519531 1.007812 -6.566406 1.6875 -7.296875 C 2.363281 -8.023438 3.335938 -8.390625 4.609375 -8.390625 C 5.878906 -8.390625 6.847656 -8.019531 7.515625 -7.28125 C 8.191406 -6.550781 8.53125 -5.503906 8.53125 -4.140625 Z M 2.5 -4.140625 C 2.5 -3.210938 2.675781 -2.515625 3.03125 -2.046875 C 3.382812 -1.585938 3.90625 -1.359375 4.59375 -1.359375 C 6 -1.359375 6.703125 -2.285156 6.703125 -4.140625 C 6.703125 -5.992188 6.003906 -6.921875 4.609375 -6.921875 C 3.910156 -6.921875 3.382812 -6.6875 3.03125 -6.21875 C 2.675781 -5.75 2.5 -5.054688 2.5 -4.140625 Z M 2.5 -4.140625 "/></g></g></g><g fill="#393536" fill-opacity="1"><g transform="translate(162.087189, 258.544962)"><g><path d="M 1.03125 0 L 1.03125 -8.25 L 2.78125 -8.25 L 2.78125 -1.453125 L 6.140625 -1.453125 L 6.140625 0 Z M 1.03125 0 "/></g></g></g><g fill="#393536" fill-opacity="1"><g transform="translate(172.526783, 258.544962)"><g><path d="M 7.75 -8.25 L 7.75 -2.90625 C 7.75 -2.300781 7.613281 -1.769531 7.34375 -1.3125 C 7.070312 -0.851562 6.675781 -0.5 6.15625 -0.25 C 5.644531 -0.0078125 5.039062 0.109375 4.34375 0.109375 C 3.28125 0.109375 2.453125 -0.160156 1.859375 -0.703125 C 1.273438 -1.242188 0.984375 -1.988281 0.984375 -2.9375 L 0.984375 -8.25 L 2.734375 -8.25 L 2.734375 -3.203125 C 2.734375 -2.566406 2.859375 -2.097656 3.109375 -1.796875 C 3.367188 -1.503906 3.789062 -1.359375 4.375 -1.359375 C 4.945312 -1.359375 5.363281 -1.503906 5.625 -1.796875 C 5.882812 -2.097656 6.015625 -2.570312 6.015625 -3.21875 L 6.015625 -8.25 Z M 7.75 -8.25 "/></g></g></g><g fill="#393536" fill-opacity="1"><g transform="translate(185.172448, 258.544962)"><g><path d="M 4.21875 0 L 2.46875 0 L 2.46875 -6.796875 L 0.234375 -6.796875 L 0.234375 -8.25 L 6.46875 -8.25 L 6.46875 -6.796875 L 4.21875 -6.796875 Z M 4.21875 0 "/></g></g></g><g fill="#393536" fill-opacity="1"><g transform="translate(195.775661, 258.544962)"><g><path d="M 1.03125 0 L 1.03125 -8.25 L 2.78125 -8.25 L 2.78125 0 Z M 1.03125 0 "/></g></g></g><g fill="#393536" fill-opacity="1"><g transform="translate(203.51267, 258.544962)"><g><path d="M 8.53125 -4.140625 C 8.53125 -2.773438 8.191406 -1.722656 7.515625 -0.984375 C 6.835938 -0.253906 5.863281 0.109375 4.59375 0.109375 C 3.332031 0.109375 2.363281 -0.253906 1.6875 -0.984375 C 1.007812 -1.722656 0.671875 -2.78125 0.671875 -4.15625 C 0.671875 -5.519531 1.007812 -6.566406 1.6875 -7.296875 C 2.363281 -8.023438 3.335938 -8.390625 4.609375 -8.390625 C 5.878906 -8.390625 6.847656 -8.019531 7.515625 -7.28125 C 8.191406 -6.550781 8.53125 -5.503906 8.53125 -4.140625 Z M 2.5 -4.140625 C 2.5 -3.210938 2.675781 -2.515625 3.03125 -2.046875 C 3.382812 -1.585938 3.90625 -1.359375 4.59375 -1.359375 C 6 -1.359375 6.703125 -2.285156 6.703125 -4.140625 C 6.703125 -5.992188 6.003906 -6.921875 4.609375 -6.921875 C 3.910156 -6.921875 3.382812 -6.6875 3.03125 -6.21875 C 2.675781 -5.75 2.5 -5.054688 2.5 -4.140625 Z M 2.5 -4.140625 "/></g></g></g><g fill="#393536" fill-opacity="1"><g transform="translate(216.62099, 258.544962)"><g><path d="M 8.359375 0 L 6.140625 0 L 2.546875 -6.25 L 2.5 -6.25 C 2.570312 -5.144531 2.609375 -4.359375 2.609375 -3.890625 L 2.609375 0 L 1.03125 0 L 1.03125 -8.25 L 3.25 -8.25 L 6.828125 -2.078125 L 6.875 -2.078125 C 6.8125 -3.148438 6.78125 -3.90625 6.78125 -4.34375 L 6.78125 -8.25 L 8.359375 -8.25 Z M 8.359375 0 "/></g></g></g><g fill="#393536" fill-opacity="1"><g transform="translate(229.926784, 258.544962)"><g><path d="M 5.90625 -2.296875 C 5.90625 -1.546875 5.632812 -0.957031 5.09375 -0.53125 C 4.5625 -0.101562 3.820312 0.109375 2.875 0.109375 C 1.988281 0.109375 1.207031 -0.0546875 0.53125 -0.390625 L 0.53125 -2.015625 C 1.082031 -1.765625 1.550781 -1.585938 1.9375 -1.484375 C 2.332031 -1.378906 2.6875 -1.328125 3 -1.328125 C 3.382812 -1.328125 3.675781 -1.398438 3.875 -1.546875 C 4.082031 -1.691406 4.1875 -1.910156 4.1875 -2.203125 C 4.1875 -2.367188 4.140625 -2.515625 4.046875 -2.640625 C 3.960938 -2.765625 3.832031 -2.882812 3.65625 -3 C 3.488281 -3.113281 3.132812 -3.300781 2.59375 -3.5625 C 2.082031 -3.800781 1.703125 -4.03125 1.453125 -4.25 C 1.203125 -4.46875 1 -4.71875 0.84375 -5 C 0.695312 -5.289062 0.625 -5.632812 0.625 -6.03125 C 0.625 -6.757812 0.867188 -7.332031 1.359375 -7.75 C 1.859375 -8.164062 2.546875 -8.375 3.421875 -8.375 C 3.847656 -8.375 4.253906 -8.320312 4.640625 -8.21875 C 5.035156 -8.113281 5.445312 -7.972656 5.875 -7.796875 L 5.3125 -6.4375 C 4.863281 -6.613281 4.492188 -6.738281 4.203125 -6.8125 C 3.921875 -6.882812 3.640625 -6.921875 3.359375 -6.921875 C 3.035156 -6.921875 2.785156 -6.84375 2.609375 -6.6875 C 2.429688 -6.53125 2.34375 -6.328125 2.34375 -6.078125 C 2.34375 -5.921875 2.375 -5.785156 2.4375 -5.671875 C 2.507812 -5.554688 2.625 -5.445312 2.78125 -5.34375 C 2.9375 -5.238281 3.304688 -5.046875 3.890625 -4.765625 C 4.660156 -4.398438 5.1875 -4.03125 5.46875 -3.65625 C 5.757812 -3.28125 5.90625 -2.828125 5.90625 -2.296875 Z M 5.90625 -2.296875 "/></g></g></g><g fill="#545454" fill-opacity="1"><g transform="translate(168.702785, 183.199357)"><g><path d="M 34.984375 -38.5 L 35.53125 -24.6875 L 34.484375 -24.6875 C 32.867188 -29.570312 31.4375 -32.898438 30.1875 -34.671875 C 28.945312 -36.453125 27.15625 -37.34375 24.8125 -37.34375 L 24.140625 -37.34375 L 24.140625 -1.15625 L 28.8125 -1.15625 L 28.8125 0 L 8.75 0 L 8.75 -1.15625 L 13.421875 -1.15625 L 13.421875 -37.34375 L 12.703125 -37.34375 C 10.359375 -37.34375 8.539062 -36.414062 7.25 -34.5625 C 5.96875 -32.71875 4.5625 -29.425781 3.03125 -24.6875 L 1.984375 -24.6875 L 2.53125 -38.5 Z M 34.984375 -38.5 "/></g></g></g><g fill="#737373" fill-opacity="1"><g transform="translate(159.436151, 177.35695)"><g><path d="M 9.8125 -0.4375 L 8.15625 -5.34375 L 3.65625 -5.34375 L 1.90625 -0.4375 L 3.609375 -0.4375 L 3.609375 0 L 0.140625 0 L 0.140625 -0.4375 L 1.203125 -0.4375 L 7 -16.046875 L 8.859375 -16.046875 L 14.578125 -0.4375 L 15.625 -0.4375 L 15.625 0 L 8.203125 0 L 8.203125 -0.4375 Z M 6 -11.796875 L 3.859375 -5.84375 L 7.96875 -5.84375 Z M 6 -11.796875 "/></g></g></g><g fill="#737373" fill-opacity="1"><g transform="translate(200.520783, 178.379974)"><g><path d="M 7.375 -0.25 C 8.125 -0.25 8.789062 -0.453125 9.375 -0.859375 C 9.957031 -1.265625 10.25 -1.878906 10.25 -2.703125 C 10.25 -3.535156 9.9375 -4.171875 9.3125 -4.609375 C 8.6875 -5.046875 7.796875 -5.425781 6.640625 -5.75 C 5.484375 -6.070312 4.640625 -6.351562 4.109375 -6.59375 C 3.585938 -6.84375 3.09375 -7.164062 2.625 -7.5625 C 1.6875 -8.34375 1.21875 -9.554688 1.21875 -11.203125 C 1.21875 -12.554688 1.695312 -13.710938 2.65625 -14.671875 C 3.625 -15.640625 4.941406 -16.125 6.609375 -16.125 C 7.398438 -16.125 8.226562 -16.003906 9.09375 -15.765625 C 9.96875 -15.535156 10.507812 -15.421875 10.71875 -15.421875 C 10.9375 -15.421875 11.128906 -15.570312 11.296875 -15.875 L 11.546875 -15.875 L 11.703125 -11.296875 L 11.34375 -11.296875 C 10.613281 -12.609375 9.851562 -13.660156 9.0625 -14.453125 C 8.269531 -15.253906 7.40625 -15.65625 6.46875 -15.65625 C 5.539062 -15.65625 4.820312 -15.4375 4.3125 -15 C 3.800781 -14.570312 3.546875 -14 3.546875 -13.28125 C 3.546875 -12.5625 3.847656 -12.007812 4.453125 -11.625 C 5.066406 -11.238281 5.816406 -10.925781 6.703125 -10.6875 C 7.597656 -10.445312 8.1875 -10.28125 8.46875 -10.1875 C 8.75 -10.09375 9.097656 -9.96875 9.515625 -9.8125 C 9.929688 -9.65625 10.269531 -9.488281 10.53125 -9.3125 C 10.800781 -9.132812 11.082031 -8.914062 11.375 -8.65625 C 11.664062 -8.394531 11.894531 -8.101562 12.0625 -7.78125 C 12.476562 -7.050781 12.6875 -6.191406 12.6875 -5.203125 C 12.6875 -3.566406 12.175781 -2.25 11.15625 -1.25 C 10.132812 -0.257812 8.789062 0.234375 7.125 0.234375 C 6.257812 0.234375 5.269531 0.117188 4.15625 -0.109375 C 3.050781 -0.335938 2.4375 -0.453125 2.3125 -0.453125 C 2.101562 -0.453125 1.898438 -0.222656 1.703125 0.234375 L 1.390625 0.234375 L 1.15625 -5.171875 L 1.546875 -5.171875 C 2.210938 -3.859375 3.0625 -2.707031 4.09375 -1.71875 C 5.132812 -0.738281 6.226562 -0.25 7.375 -0.25 Z M 7.375 -0.25 "/></g></g></g></svg>