<?xml version="1.0" encoding="utf-8"?>
<!-- Generator: Adobe Illustrator 22.0.0, SVG Export Plug-In . SVG Version: 6.00 Build 0)  -->
<svg version="1.1" id="Layer_1" xmlns="http://www.w3.org/2000/svg" xmlns:xlink="http://www.w3.org/1999/xlink" x="0px" y="0px" viewBox="0 0 147.2 49.7" style="enable-background:new 0 0 147.2 49.7;" xml:space="preserve">
  <style type="text/css">
	.st0{clip-path:url(#SVGID_2_);}
	.st1{clip-path:url(#SVGID_4_);fill:#E31935;}
</style>
  <g id="Bray_Logo_1_">
    <g>
      <defs>
        <rect id="SVGID_1_" x="1.2" y="2.3" width="144" height="45" />
      </defs>
      <clipPath id="SVGID_2_">
        <use xlink:href="#SVGID_1_" style="overflow:visible;" />
      </clipPath>
      <g class="st0">
        <defs>
          <rect id="SVGID_3_" x="1.2" y="2.3" width="144" height="45" />
        </defs>
        <clipPath id="SVGID_4_">
          <use xlink:href="#SVGID_3_" style="overflow:visible;" />
        </clipPath>
        <path class="st1" d="M138.4,44.8h0.5c0.3,0,0.6-0.1,0.6-0.4c0-0.3-0.3-0.4-0.6-0.4h-0.5V44.8z M138,43.6h1.1
				c0.6,0,0.9,0.3,0.9,0.8c0,0.4-0.3,0.8-0.7,0.8l0.8,1.2h-0.5l-0.8-1.2h-0.4v1.2H138V43.6z M138.9,47c1.1,0,1.9-0.9,1.9-2
				c0-1.1-0.8-2-1.9-2c-1.1,0-1.9,0.9-1.9,2C137,46.1,137.8,47,138.9,47 M138.9,42.6c1.3,0,2.3,1.1,2.3,2.3c0,1.3-1.1,2.3-2.3,2.3
				c-1.3,0-2.3-1.1-2.3-2.3C136.5,43.7,137.6,42.6,138.9,42.6" />
        <path class="st1" d="M90.1,21.3c2.1,0,4-1.9,4-4c0-2.3-1.3-4.7-4.2-4.7c-3.6,0-5.7,2.9-6,4c-0.1,0.2-0.1,0.3-0.1,0.5v-4.4H71
				l-0.8,4.2H74c1.1,0,2.1,1.1,2.1,2.3v11.5c0,1.1-1.1,2.3-2.1,2.3h-3.4l-1.1,4.4h21.8l0.9-4.4h-8.3v-9.1c0-2.1,0.3-3.5,0.3-3.6
				c0.2-1,0.5-2,1.4-3c0.8-0.8,1.1-0.4,1.1,0C86.5,19.6,87.9,21.3,90.1,21.3" />
        <path class="st1" d="M107.9,28.8c0,2.6-1.6,4.6-3.7,4.7h-0.5c-1.5,0-2.3-1.5-2.5-2.5c-0.1-0.6-0.1-1.3,0.1-2h0
				c0.4-2.7,3.6-5.7,5.4-5.7h0.4c0.4,0,0.8,0.4,0.8,0.8V28.8z M132.9,12.8l-0.8,4.2h1.7c0,0,0,0,0,0c0.2,0,0.5,0.1,0.7,0.2
				c0.3,0.3,0.4,0.8,0.3,1.5l-3.4,8.5l-3.6-8.5c-0.2-0.9,0.2-1.7,1.1-1.7h1.9l0.8-4.2h-16.8l-0.5,2.5c-0.2-0.3-0.5-0.6-0.6-0.7
				c-0.5-0.6-1-1.1-1.6-1.4c-1.4-1-2.9-1.2-4.6-1.2c-1.4,0-3.2-0.1-5,0.8c-0.9,0.4-1.6,1-2.3,1.7c-0.3,0.3-0.5,0.6-0.7,0.9
				c-0.1,0.1-0.2,0.3-0.2,0.4v-3h-4.4v11.9l4.4-3.6c0.2-3.6,2.5-6.1,5.1-6.1h0.4c1.1,0,1.9,0.4,2.4,1l0,0c0,0,0.5,0.5,0.7,1.3l0,0
				c0,0,0.3,0.8-0.1,1.6l-0.1,0.2c-0.3,0.7-1,1.4-2.4,2c-4.5,2.2-8.3,4-10.2,5.9c-1.5,1.5-2,3.9-1.3,6.2c0.8,2.9,3.6,4.8,7.1,4.8
				c3,0,5.5-1.3,7-3.6v3h12.7l0.9-4.4H117c-0.7,0-1.5-0.8-1.5-1.5V18.4c0-0.3,0-0.7-0.2-1c0-0.2-0.1-0.3-0.2-0.5l2.1,0
				c0.3,0,1.7,0.2,2.2,1.5c0.1,0.2,7.6,18.3,7.6,18.3c-0.8,3.4-4.4,5.9-7.6,5.9h-7l-1.1,4.4h19.5l1.1-4.4h-5.5
				c2.6-1.5,3.2-2.8,4.4-5.3l7.8-18.7c0.6-0.9,1.1-1.5,2.3-1.7h3.4l0.9-4.2H132.9z" />
        <path class="st1" d="M62.7,27.1c0,2.6,0,3.8-1.9,6.1c-0.8,0.9-2.5,1.9-4.2,1.9c-1.5,0-3-0.4-3.8-1.3c-0.2-0.4-0.2-1.2-0.2-1.6
				V20.4c0-0.2,0.1-0.4,0.4-0.5c0.6-0.2,1.3-0.2,1.9-0.2c2,0,4,0.6,5.4,2C61.9,23.1,62.7,25,62.7,27.1
				C62.7,27.1,62.7,27.1,62.7,27.1L62.7,27.1z M52.7,5.8c0-0.6,0.4-1.1,1.3-1.1h2.3c2.8,0.2,4.7,3,4.7,6.6c0,1.1-0.2,2.6-0.4,3.4
				c-0.7,2-2.6,3.3-5.9,3.2h-1.6c-0.3,0-0.5-0.2-0.5-0.6V5.8z M63.6,18.6c4-1.5,5.9-4.2,5.9-7.4c0-4.9-5.3-8.9-11.7-8.9H38.1L37,6.7
				h4.9c1.5,0,2.6,0.9,2.6,2.5v21c0,1.3-1.6,2.8-2.8,2.8h-4.4l-1.1,4.4h15.1h6.1c0,0,4.9-0.2,7.3-1.4c4.3-1.6,6.5-4.6,6.5-8.4
				C71.2,23.4,68.4,19.9,63.6,18.6" />
        <path class="st1" d="M12.8,32.4c-3.6,0-6.5-3.1-6.5-6.7c0-3.6,2.9-6.5,6.5-6.5c3.8,0,6.7,2.9,6.7,6.5
				C19.5,29.3,16.6,32.4,12.8,32.4 M15.3,14.4v-2.6H24V2.3H1.7v9.4h8.7v2.6c-5.2,1.2-9.2,5.9-9.2,11.4c0,6.5,5.3,11.6,11.6,11.6
				c6.5,0,11.6-5.1,11.6-11.6C24.4,20.2,20.6,15.5,15.3,14.4" />
      </g>
    </g>
  </g>
</svg>